<?xml version="1.0" encoding="UTF-8" standalone="no"?>
<!-- Created with Inkscape (http://www.inkscape.org/) -->

<svg
   xmlns:dc="http://purl.org/dc/elements/1.1/"
   xmlns:cc="http://creativecommons.org/ns#"
   xmlns:rdf="http://www.w3.org/1999/02/22-rdf-syntax-ns#"
   xmlns:svg="http://www.w3.org/2000/svg"
   xmlns="http://www.w3.org/2000/svg"
   xmlns:sodipodi="http://sodipodi.sourceforge.net/DTD/sodipodi-0.dtd"
   xmlns:inkscape="http://www.inkscape.org/namespaces/inkscape"
   width="32"
   height="32"
   viewBox="0 0 8.4666666 8.4666666"
   version="1.1"
   id="svg8"
   inkscape:version="0.92.2 (5c3e80d, 2017-08-06)"
   sodipodi:docname="favicon.svg">
  <defs
     id="defs2" />
  <sodipodi:namedview
     id="base"
     pagecolor="#ffffff"
     bordercolor="#666666"
     borderopacity="1.0"
     inkscape:pageopacity="0.0"
     inkscape:pageshadow="2"
     inkscape:zoom="45.254834"
     inkscape:cx="16.331456"
     inkscape:cy="17.979382"
     inkscape:document-units="pc"
     inkscape:current-layer="text5067"
     showgrid="false"
     units="px"
     showguides="true"
     inkscape:guide-bbox="true"
     objecttolerance="1"
     gridtolerance="1"
     guidetolerance="1"
     inkscape:window-width="3840"
     inkscape:window-height="2160"
     inkscape:window-x="0"
     inkscape:window-y="0"
     inkscape:window-maximized="0">
    <inkscape:grid
       type="xygrid"
       id="grid5055"
       dotted="false"
       snapvisiblegridlinesonly="false" />
  </sodipodi:namedview>
  <metadata
     id="metadata5">
    <rdf:RDF>
      <cc:Work
         rdf:about="">
        <dc:format>image/svg+xml</dc:format>
        <dc:type
           rdf:resource="http://purl.org/dc/dcmitype/StillImage" />
        <dc:title></dc:title>
      </cc:Work>
    </rdf:RDF>
  </metadata>
  <g
     inkscape:label="Layer 1"
     inkscape:groupmode="layer"
     id="layer1"
     transform="translate(0,-288.53333)">
    <g
       aria-label="m"
       style="font-style:normal;font-variant:normal;font-weight:normal;font-stretch:normal;font-size:8.1692009px;line-height:1.25;font-family:sans-serif;-inkscape-font-specification:sans-serif;letter-spacing:0px;word-spacing:0px;fill:#223344;fill-opacity:1;stroke:none;stroke-width:0.51057506"
       id="text5059"
       transform="matrix(1.0410189,0,0,1.0654363,-0.07164006,-19.240274)">
      <path
         d="m 4.4135593,290.12271 c 0.2140693,-0.38471 0.4700216,-0.66858 0.7678571,-0.85162 0.2978355,-0.18305 0.6484126,-0.27457 1.0517315,-0.27457 0.5429293,0 0.9617604,0.1908 1.2564934,0.5724 0.294733,0.3785 0.4420995,0.91833 0.4420995,1.61948 v 3.14589 H 7.0708101 v -3.11797 c 0,-0.49949 -0.08842,-0.87023 -0.2652597,-1.11222 -0.1768398,-0.24199 -0.4467532,-0.36299 -0.8097402,-0.36299 -0.4436507,0 -0.7942279,0.14737 -1.0517315,0.4421 -0.2575035,0.29473 -0.3862553,0.6965 -0.3862553,1.2053 v 2.94578 H 3.6463473 v -3.11797 c 0,-0.50259 -0.037875,-0.87333 -0.2147143,-1.11222 -0.1768398,-0.24199 -0.4498556,-0.36299 -0.8190475,-0.36299 -0.4374459,0 -0.7849206,0.14892 -1.0424242,0.44675 -0.2575036,0.29473 -0.3862554,0.69495 -0.3862554,1.20065 v 2.94578 H 0.3229753 v -5.21212 h 0.8609306 v 0.80974 c 0.1954545,-0.31955 0.4296897,-0.55534 0.7027056,-0.70736 0.2730159,-0.15202 0.5972222,-0.22803 0.972619,-0.22803 0.3784992,0 0.6996031,0.0962 0.9633116,0.28853 0.2668109,0.19235 0.4638167,0.47157 0.5910172,0.83766 z"
         style="font-size:9.53073502px;fill:#223344;fill-opacity:1;stroke-width:0.51057506"
         id="path5075"
         inkscape:connector-curvature="0"
         sodipodi:nodetypes="ccscsccscsssccscscscccccsscc" />
    </g>
    <g
       aria-label="G"
       style="font-style:normal;font-variant:normal;font-weight:normal;font-stretch:normal;font-size:6.59829378px;line-height:1.25;font-family:sans-serif;-inkscape-font-specification:sans-serif;letter-spacing:0px;word-spacing:0px;opacity:1;fill:#cc3355;fill-opacity:1;stroke:none;stroke-width:0.41239336"
       id="text850"
       transform="translate(0,-0.52916666)">
      <path
         d="m 4.6762545,296.65196 c -0.309295,0.15035 -0.6304034,0.26312 -0.9633251,0.33829 -0.3329217,0.0752 -0.6765829,0.11277 -1.0309834,0.11277 -0.8011601,0 -1.4358592,-0.22338 -1.9040975,-0.67014 -0.4682383,-0.44891 -0.70235745,-1.05676 -0.70235745,-1.82356 0,-0.77538 0.23841491,-1.38538 0.71524474,-1.82999 0.47682981,-0.44461 1.12978601,-0.66692 1.95886851,-0.66692 0.3200344,0 0.6261076,0.0301 0.9182195,0.0902 0.2942599,0.0601 0.7291927,0.20189 0.9890865,0.32003 v 0.99555 c -0.2684853,-0.15249 -0.6937527,-0.31895 -0.96009,-0.39413 -0.2641895,-0.0752 -0.529453,-0.11276 -0.7957904,-0.11276 -0.4940129,0 -0.8752619,0.13854 -1.1437472,0.41562 -0.2663373,0.27493 -0.399506,0.66906 -0.399506,1.1824 0,0.50905 0.1288729,0.90212 0.3866187,1.17919 0.2577459,0.27708 0.6239598,0.41562 1.0986417,0.41562 0.1288729,0 0.2480804,-0.008 0.3576224,-0.0226 0.1116899,-0.0172 0.2115664,-0.043 0.2996295,-0.0773 V 295.1699 H 2.7431606 v -0.83123 h 1.9330939 z"
         style="font-style:normal;font-variant:normal;font-weight:bold;font-stretch:normal;font-family:sans-serif;-inkscape-font-specification:'sans-serif Bold';fill:#cc3355;fill-opacity:1;stroke-width:0.41239336"
         id="path852"
         inkscape:connector-curvature="0"
         sodipodi:nodetypes="ccscsssccccscscsccccccc" />
    </g>
    <g
       aria-label="s"
       style="font-style:normal;font-variant:normal;font-weight:normal;font-stretch:normal;font-size:8.1692009px;line-height:1.25;font-family:sans-serif;-inkscape-font-specification:sans-serif;letter-spacing:0px;word-spacing:0px;fill:#d1c500;fill-opacity:1;stroke:none;stroke-width:0.51057506;opacity:1"
       id="text5067"
       transform="matrix(1.2801051,0,0,1.6119635,-1.5199623,-177.10856)">
      <path
         d="m 7.4070143,289.67985 0.105046,0.69043 c -0.2074211,-0.10637 -0.4228199,-0.18615 -0.6461965,-0.23933 -0.2233766,-0.0532 -0.4547309,-0.0798 -0.694063,-0.0798 -0.3643165,0 -0.6382188,0.0558 -0.8217067,0.16753 -0.1808287,0.11169 -0.271243,0.27922 -0.271243,0.5026 0,0.17019 0.065152,0.30449 0.1954545,0.40288 0.130303,0.0957 0.3922386,0.18747 0.7858069,0.27523 l 0.2512987,0.0558 c 0.521212,0.11169 0.8908471,0.26991 1.1089052,0.47468 0.2207173,0.2021 0.331076,0.48531 0.331076,0.84963 0,0.41484 -0.1648732,0.74326 -0.4946196,0.98525 -0.3270871,0.24199 -0.7778292,0.36298 -1.3522261,0.36298 -0.2393321,0 -0.4893011,-0.0239 -0.7499071,-0.0718 -0.2579468,-0.0452 -0.7040738,-0.20501 -0.9912722,-0.29809 l 0.1735543,-0.66721 c 0.271243,0.14094 0.5384971,0.24731 0.8017624,0.31911 0.2632653,0.0691 0.5238713,0.10371 0.7818181,0.10371 0.3457019,0 0.6116264,-0.0585 0.7977735,-0.17551 0.1861471,-0.11967 0.2792207,-0.2872 0.2792207,-0.5026 0,-0.19945 -0.067811,-0.35235 -0.2034322,-0.45872 -0.1329623,-0.10637 -0.4268089,-0.20875 -0.8815398,-0.30714 l -0.2552875,-0.0598 c -0.4547309,-0.0957 -0.7831477,-0.24199 -0.9852503,-0.43877 -0.2021026,-0.19945 -0.3031539,-0.47202 -0.3031539,-0.81772 0,-0.42016 0.1489177,-0.74459 0.4467531,-0.97328 0.2978355,-0.2287 0.7206554,-0.34305 1.2684599,-0.34305 0.271243,0 0.5265305,0.0199 0.7658626,0.0598 0.2393321,0.0399 0.3550034,0.10333 0.557106,0.18313 z"
         style="fill:#d1c500;fill-opacity:1;stroke-width:0.51057506"
         id="path5069"
         inkscape:connector-curvature="0"
         sodipodi:nodetypes="cccscsccccscsccccscsccccscsscc" />
    </g>
    <path
       style="font-style:normal;font-variant:normal;font-weight:normal;font-stretch:normal;font-size:9.53073502px;line-height:1.25;font-family:sans-serif;-inkscape-font-specification:sans-serif;letter-spacing:0px;word-spacing:0px;fill:#223344;fill-opacity:1;stroke:none;stroke-width:2.03231096"
       d="M 24.253906 0.50585938 C 23.913764 0.50585938 23.588652 0.53058799 23.267578 0.56445312 L 23.267578 3.5058594 C 23.285567 3.5057322 23.302246 3.5039062 23.320312 3.5039062 C 24.748506 3.5039062 25.810073 3.9904059 26.505859 4.9648438 C 27.201645 5.9393193 27.548828 7.4339613 27.548828 9.4453125 L 27.548828 10.189453 L 30.9375 10.189453 L 30.9375 9.3320312 C 30.9375 6.5086108 30.35691 4.334717 29.197266 2.8105469 C 28.037621 1.2739043 26.390094 0.50585938 24.253906 0.50585938 z "
       transform="matrix(0.26458333,0,0,0.26458333,0,288.53333)"
       id="path883" />
    <g
       aria-label="g"
       style="font-style:normal;font-variant:normal;font-weight:normal;font-stretch:normal;font-size:8.1692009px;line-height:1.25;font-family:sans-serif;-inkscape-font-specification:sans-serif;letter-spacing:0px;word-spacing:0px;opacity:0.072;fill:#cc3355;fill-opacity:1;stroke:none;stroke-width:0.51057506"
       id="text5063"
       transform="translate(-7.1800251,1.2058224)">
      <path
         d="m 3.8356127,291.55056 q 0,-0.79777 -0.3310761,-1.23655 -0.3270871,-0.43877 -0.9214284,-0.43877 -0.5903524,0 -0.9214284,0.43877 -0.3270872,0.43878 -0.3270872,1.23655 0,0.79379 0.3270872,1.23256 0.331076,0.43878 0.9214284,0.43878 0.5943413,0 0.9214284,-0.43878 0.3310761,-0.43877 0.3310761,-1.23256 z m 0.7339516,1.73117 q 0,1.14082 -0.5065862,1.69527 -0.5065862,0.55844 -1.5516695,0.55844 -0.3869202,0 -0.7299628,-0.0598 -0.3430426,-0.0559 -0.6661409,-0.17551 v -0.71401 q 0.3230983,0.17551 0.6382189,0.25928 0.3151205,0.0838 0.6422076,0.0838 0.7219851,0 1.0809832,-0.37894 0.3589981,-0.37495 0.3589981,-1.13683 v -0.36299 q -0.2273655,0.3949 -0.5823747,0.59036 -0.3550092,0.19545 -0.8496288,0.19545 -0.8217068,0 -1.3243041,-0.62625 -0.5025973,-0.62625 -0.5025973,-1.65937 0,-1.03711 0.5025973,-1.66336 0.5025973,-0.62625 1.3243041,-0.62625 0.4946196,0 0.8496288,0.19545 0.3550092,0.19546 0.5823747,0.59036 v -0.67811 h 0.7339516 z"
         style="fill:#cc3355;fill-opacity:1;stroke-width:0.51057506"
         id="path5072"
         inkscape:connector-curvature="0" />
    </g>
    <g
       id="g857"
       style="font-style:normal;font-variant:normal;font-weight:normal;font-stretch:normal;font-size:6.59829378px;line-height:1.25;font-family:sans-serif;-inkscape-font-specification:sans-serif;letter-spacing:0px;word-spacing:0px;opacity:1;fill:#cc3355;fill-opacity:1;stroke:none;stroke-width:0.41239336"
       aria-label="G"
       transform="translate(0,-0.52916666)">
      <path
         style="font-style:normal;font-variant:normal;font-weight:bold;font-stretch:normal;font-family:sans-serif;-inkscape-font-specification:'sans-serif Bold';fill:#cc3355;fill-opacity:1;stroke-width:1.55865204"
         d="m 10.367188,23.425781 v 1.658203 h 2.861328 v 3.53125 c -0.332837,0.129638 -0.708725,0.226008 -1.13086,0.291016 -0.414017,0.05518 -0.864484,0.08594 -1.351562,0.08594 -0.725657,0 -1.3811375,-0.09039 -1.9726565,-0.261719 v 3.589843 c 0.4411754,0.04098 0.8915693,0.06836 1.3632815,0.06836 1.339466,0 2.638197,-0.141561 3.896484,-0.425781 1.258287,-0.284107 2.471636,-0.709092 3.640625,-1.277344 v -7.259766 z"
         transform="matrix(0.26458333,0,0,0.26458333,0,288.53333)"
         id="path855"
         inkscape:connector-curvature="0" />
    </g>
    <path
       style="font-style:normal;font-variant:normal;font-weight:normal;font-stretch:normal;font-size:9.53073502px;line-height:1.25;font-family:sans-serif;-inkscape-font-specification:sans-serif;letter-spacing:0px;word-spacing:0px;fill:#223344;fill-opacity:1;stroke:none;stroke-width:2.03231096"
       d="M 1 6.4785156 L 1 22 L 4.3867188 22 L 4.3867188 10.138672 C 4.3867187 8.7076739 4.6422634 7.4899985 5.1425781 6.4785156 L 1 6.4785156 z "
       transform="matrix(0.26458333,0,0,0.26458333,0,288.53333)"
       id="path862" />
    <path
       style="font-style:normal;font-variant:normal;font-weight:normal;font-stretch:normal;font-size:9.53073502px;line-height:1.25;font-family:sans-serif;-inkscape-font-specification:sans-serif;letter-spacing:0px;word-spacing:0px;fill:#223344;fill-opacity:1;stroke:none;stroke-width:2.03231096"
       d="M 14.076172 18.123047 L 14.076172 22 L 17.662109 22 L 17.662109 18.123047 L 14.076172 18.123047 z "
       transform="matrix(0.26458333,0,0,0.26458333,0,288.53333)"
       id="path874" />
    <path
       style="font-style:normal;font-variant:normal;font-weight:normal;font-stretch:normal;font-size:9.53073502px;line-height:1.25;font-family:sans-serif;-inkscape-font-specification:sans-serif;letter-spacing:0px;word-spacing:0px;fill:#223344;fill-opacity:1;stroke:none;stroke-width:0.53771561"
       d="m 9.4404803,293.10058 v 1.49914 h 0.8965857 v -1.49914 z"
       id="path892"
       inkscape:connector-curvature="0" />
  </g>
</svg>
